<svg width="25" height="25" viewBox="0 0 25 25" fill="none" xmlns="http://www.w3.org/2000/svg">
<path d="M13.1195 16.0156H10.9375V16.6351L12.3856 18.0832C12.4219 18.1194 12.4506 18.1625 12.4703 18.2099C12.4899 18.2573 12.5 18.3081 12.5 18.3594V20.7031C12.5 20.7451 12.4932 20.7868 12.48 20.8267L12.2607 21.4844H14.4531V17.5112C14.4532 17.4598 14.4432 17.409 14.4235 17.3615C14.4038 17.314 14.3749 17.2709 14.3385 17.2347L13.1195 16.0156Z" fill="white"/>
<path d="M16.1772 16.0156L17.5588 17.3971C17.6953 17.5334 17.796 17.7014 17.8519 17.8861C17.9078 18.0708 17.9171 18.2664 17.879 18.4555L17.4142 20.7797C17.4067 20.8172 17.3937 20.8534 17.3757 20.8872L17.0571 21.4844H19.2069L19.8319 18.1512L17.4295 16.0156H16.1772Z" fill="white"/>
<path d="M5.07812 15.625C5.07812 15.9358 4.95466 16.2339 4.73489 16.4536C4.51512 16.6734 4.21705 16.7969 3.90625 16.7969C3.59545 16.7969 3.29738 16.6734 3.07761 16.4536C2.85784 16.2339 2.73438 15.9358 2.73438 15.625V15.2344H1.5625V15.8203C1.5625 16.3901 1.78885 16.9366 2.19176 17.3395C2.59467 17.7424 3.14114 17.9688 3.71094 17.9688C4.28074 17.9688 4.8272 17.7424 5.23011 17.3395C5.63302 16.9366 5.85938 16.3901 5.85938 15.8203V15.344L5.07812 15.5394V15.625Z" fill="white"/>
<path d="M4.41333 13.3891L5.43706 12.1094H4.11514L3.44985 13.1073C3.43556 13.1287 3.41921 13.1487 3.40103 13.1668L2.11475 14.4531H2.99463L4.41333 13.3891Z" fill="white"/>
<path d="M21.9894 15.5106C21.9531 15.4743 21.9244 15.4313 21.9047 15.3839C21.8851 15.3365 21.875 15.2857 21.875 15.2344V8.98438C21.8765 8.20614 21.6441 7.4454 21.2081 6.80078C20.3918 5.59248 18.964 4.95679 17.4805 5.14204L15.4303 5.39834C15.0407 5.44732 14.6465 5.44732 14.2569 5.39834L12.434 5.1709L14.0133 8.01362C14.0456 8.07165 14.0625 8.13694 14.0625 8.20332C14.0625 8.2697 14.0456 8.33499 14.0133 8.39302L12.0602 11.9086C12.0264 11.9695 11.9768 12.0202 11.9168 12.0555C11.8568 12.0908 11.7884 12.1094 11.7188 12.1094H8.98438V11.3281H11.4889L13.225 8.20313L11.4893 5.07876C11.4758 5.07876 11.4622 5.07813 11.4487 5.07813H6.27734C5.60177 5.07759 4.95003 5.32769 4.44824 5.78003L2.46768 7.56226C2.18296 7.81882 1.95527 8.1323 1.79934 8.48241C1.64342 8.83252 1.56273 9.21146 1.5625 9.59473V13.9007L2.82144 12.6416L3.55215 11.5456L3.92627 10.4233L4.66748 10.6704L4.44824 11.3281H6.00859L6.68188 9.98154L7.38062 10.331L6.88203 11.3281H7.8125C7.9161 11.3281 8.01546 11.3693 8.08871 11.4425C8.16197 11.5158 8.20312 11.6152 8.20312 11.7188V20.7031C8.20311 20.7451 8.19635 20.7868 8.18311 20.8267L7.96387 21.4844H10.1562V13.2813H10.9375V15.2344H17.1875V13.2813H17.9688V15.4496L21.3533 18.4581C21.3945 18.4947 21.4275 18.5397 21.4501 18.59C21.4727 18.6403 21.4844 18.6948 21.4844 18.75V21.0938C21.4844 21.1544 21.4703 21.2142 21.4431 21.2685L21.3352 21.4844H23.4375V17.1206C23.4376 17.0692 23.4276 17.0183 23.4079 16.9709C23.3882 16.9234 23.3593 16.8803 23.3229 16.8441L21.9894 15.5106ZM4.6875 8.59375H3.90625V7.8125H4.6875V8.59375ZM7.8125 6.64063V5.85938H10.5469C10.6112 5.85938 10.6745 5.87525 10.7312 5.90559C10.7879 5.93593 10.8362 5.9798 10.8719 6.0333L11.6531 7.20518L11.0031 7.63858L10.3378 6.64063H7.8125Z" fill="white"/>
<path d="M22.7538 7.48346L22.5591 8.2403C22.8107 8.30517 23.0335 8.45186 23.1926 8.65729C23.3516 8.86272 23.4379 9.11521 23.4377 9.37502V14.4532H24.219V9.37502C24.2192 8.94186 24.0754 8.52091 23.8101 8.17846C23.5449 7.83601 23.1733 7.59151 22.7538 7.48346V7.48346Z" fill="white"/>
</svg>
